<svg xmlns="http://www.w3.org/2000/svg" version="1.1" xmlns:xlink="http://www.w3.org/1999/xlink" xmlns:svgjs="http://svgjs.com/svgjs" width="1920" height="1080" preserveAspectRatio="none" viewBox="0 0 1920 1080"><g mask="url(&quot;#SvgjsMask1142&quot;)" fill="none"><rect width="1920" height="1080" x="0" y="0" fill="url(#SvgjsLinearGradient1143)"></rect><path d="M1920 0L1765.67 0L1920 208.63z" fill="rgba(255, 255, 255, .1)"></path><path d="M1765.67 0L1920 208.63L1920 438.36L1408.74 0z" fill="rgba(255, 255, 255, .075)"></path><path d="M1408.74 0L1920 438.36L1920 657.79L957.4300000000001 0z" fill="rgba(255, 255, 255, .05)"></path><path d="M957.4300000000001 0L1920 657.79L1920 703.12L453.95000000000005 0z" fill="rgba(255, 255, 255, .025)"></path><path d="M0 1080L832.77 1080L0 996.31z" fill="rgba(0, 0, 0, .1)"></path><path d="M0 996.31L832.77 1080L1416.05 1080L0 543.23z" fill="rgba(0, 0, 0, .075)"></path><path d="M0 543.23L1416.05 1080L1525.3 1080L0 395.59000000000003z" fill="rgba(0, 0, 0, .05)"></path><path d="M0 395.59000000000003L1525.3 1080L1781.62 1080L0 253.49000000000004z" fill="rgba(0, 0, 0, .025)"></path></g><defs><mask id="SvgjsMask1142"><rect width="1920" height="1080" fill="#ffffff"></rect></mask><linearGradient x1="10.94%" y1="-19.44%" x2="89.06%" y2="119.44%" gradientUnits="userSpaceOnUse" id="SvgjsLinearGradient1143"><stop stop-color="#0e2a47" offset="0"></stop><stop stop-color="rgba(10, 32, 61, 1)" offset="1"></stop></linearGradient></defs></svg>